<?xml version="1.0" encoding="utf-8"?>
<!-- Generator: Adobe Illustrator 16.0.0, SVG Export Plug-In . SVG Version: 6.00 Build 0)  -->
<!DOCTYPE svg PUBLIC "-//W3C//DTD SVG 1.1//EN" "http://www.w3.org/Graphics/SVG/1.1/DTD/svg11.dtd">
<svg version="1.1" id="Layer_1" xmlns="http://www.w3.org/2000/svg" xmlns:xlink="http://www.w3.org/1999/xlink" x="0px" y="0px"
	 width="1360px" height="680px" viewBox="0 0 1360 680" enable-background="new 0 0 1360 680" xml:space="preserve">
<image overflow="visible" width="1360" height="680" href="http://192.168.0.211:8899/company/company.png" ></image><path fill="#808080" d="M305.767,174.203l1.859,17.903l-11.284,1.172l-1.859-17.903L305.767,174.203z"/>
<path fill="#808080" d="M253.542,246.79l2.09,20.117l-12.162,1.263l-2.09-20.117L253.542,246.79z"/><path fill="#808080" d="M325.892,216.434l2.041,19.651l-11.5,1.194l-2.042-19.651L325.892,216.434z"/>
<path fill="#808080" d="M371.438,148.305l1.058,18.138l-11.195,0.654l-1.059-18.139L371.438,148.305z"/><path fill="#808080" d="M448.704,117.947l1.159,17.651l-10.553,0.693l-1.16-17.652L448.704,117.947z"/>
<path fill="#808080" d="M505.647,95.771l1.127,17.165l-10.533,0.692l-1.129-17.168L505.647,95.771z"/><path fill="#808080" d="M557.754,74.971l1.104,16.825l-9.94,0.653l-1.106-16.828L557.754,74.971z"/>
<path fill="#808080" d="M608.408,54.879l1.122,17.077l-9.917,0.651l-1.123-17.081L608.408,54.879z"/><path fill="#808080" d="M656.5,37.451l0.372,14.758l-9.71,0.245l-0.372-14.761L656.5,37.451z"/>
<path fill="#808080" d="M394.525,188.299l1.45,18.991l-11.55,0.883l-1.451-18.991L394.525,188.299z"/><path fill="#808080" d="M474.964,155.138l0.714,17.973l-10.604,0.42l-0.715-17.971L474.964,155.138z"/>
<path fill="#808080" d="M533.278,130.633l0.7,17.606l-9.996,0.396l-0.7-17.606L533.278,130.633z"/><path fill="#808080" d="M587.315,108.501l0.677,17.042l-9.912,0.39l-0.678-17.039L587.315,108.501z"/>
<path fill="#808080" d="M638.99,87.172l0.634,15.97l-9.317,0.367l-0.635-15.967L638.99,87.172z"/><path fill="#808080" d="M359.278,261.414l2.192,21.094l-12.526,1.301l-2.191-21.095L359.278,261.414z"/>
<path fill="#808080" d="M429.142,230.591l1.926,19.685l-11.447,1.121l-1.925-19.687L429.142,230.591z"/><path fill="#808080" d="M387.645,315.742l1.007,21.73l-12.574,0.582l-1.006-21.732L387.645,315.742z"/>
<path fill="#808080" d="M460.641,280.309l0.979,21.119l-12.259,0.567l-0.978-21.119L460.641,280.309z"/><path fill="#808080" d="M495.18,200.9l0.926,19.978l-11.657,0.539l-0.924-19.978L495.18,200.9z"/>
<path fill="#808080" d="M528.13,247.494l0.973,20.987l-11.262,0.521l-0.972-20.987L528.13,247.494z"/><path fill="#808080" d="M572.339,167.42l0.578,18.188l-10.315,0.325l-0.576-18.188L572.339,167.42z"/>
<path fill="#808080" d="M628.109,141.623l0.57,17.939l-9.725,0.307l-0.568-17.938L628.109,141.623z"/><path fill="#808080" d="M609.231,209.87l0.592,18.62l-11.025,0.347l-0.589-18.619L609.231,209.87z"/>
<path fill="#808080" d="M681.035,119.127l0.521,16.378l-10.314,0.326l-0.52-16.377L681.035,119.127z"/><path fill="#808080" d="M730.953,97.023l0.521,16.437l-10.039,0.316l-0.521-16.436L730.953,97.023z"/><path fill="#808080" d="M778.122,75.818l0.521,16.457l-10.377,0.327l-0.522-16.456L778.122,75.818z"/>
<path fill="#808080" d="M821.661,55.355l0.521,16.457l-10.183,0.321l-0.521-16.456L821.661,55.355z"/><path fill="#808080" d="M666.693,181.951l0.596,18.772l-10.487,0.33l-0.593-18.771L666.693,181.951z"/>
<path fill="#808080" d="M720.611,156.726l0.576,18.152l-10.508,0.332l-0.574-18.152L720.611,156.726z"/><path fill="#808080" d="M771.105,132.572l0.536,17.001l-9.001,0.284l-0.537-17.003L771.105,132.572z"/>
<path fill="#808080" d="M819.726,108.634l0.54,17.129l-9.988,0.314l-0.541-17.129L819.726,108.634z"/><path fill="#808080" d="M863.719,87.229l0.506,16.115l-9.688,0.306l-0.508-16.116L863.719,87.229z"/>
<path fill="#808080" d="M959.36,97.338l-0.085,16.462l-10.322-0.051l0.083-16.463L959.36,97.338z"/><path fill="#808080" d="M1010.375,132.973l-0.086,16.911l-11.003-0.054l0.085-16.913L1010.375,132.973z"/><path fill="#808080" d="M967.373,156.767l-0.093,18.47l-11.336-0.056l0.095-18.471L967.373,156.767z"/>
<path fill="#808080" d="M920.706,183.1l-0.093,18.47l-11.336-0.056l0.095-18.471L920.706,183.1z"/><path fill="#808080" d="M871.059,211.101l-0.099,19.601l-11.336-0.056l0.101-19.604L871.059,211.101z"/>
<path fill="#808080" d="M1113.077,144.981l-0.89,17.268l-10.648-0.548l0.893-17.271L1113.077,144.981z"/><path fill="#808080" d="M1073.418,169.409l-0.954,18.521l-11.285-0.581l0.958-18.524L1073.418,169.409z"/>
<path fill="#808080" d="M1029.537,195.842l-1.02,19.758l-11.443-0.589l1.023-19.762L1029.537,195.842z"/><path fill="#808080" d="M983.148,225.087l-0.983,19.066l-11.625-0.598l0.987-19.069L983.148,225.087z"/>
<path fill="#808080" d="M933.883,255.885l-1.014,19.712l-11.38-0.585l1.019-19.715L933.883,255.885z"/><path fill="#808080" d="M880.479,288.733l-1.066,20.781l-12.398-0.638l1.076-20.785L880.479,288.733z"/>
<path fill="#808080" d="M818.777,240.406l-0.287,20.315l-11.304-0.161l0.295-20.321L818.777,240.406z"/><path fill="#808080" d="M805.572,333.643l0.184,22.344l-12.67,0.1l-0.174-22.345L805.572,333.643z"/>
<path fill="#808080" d="M762.018,271.675l0.17,20.953l-11.779,0.092l-0.163-20.954L762.018,271.675z"/><path fill="#808080" d="M917.041,120.356l-0.089,17.013l-10.672-0.052l0.085-17.015L917.041,120.356z"/>
<path fill="#808080" d="M871.104,142.856l-0.095,18.176l-10.058-0.05l0.092-18.178L871.104,142.856z"/><path fill="#808080" d="M822.219,168.844l-0.094,18.096l-10.699-0.054l0.092-18.097L822.219,168.844z"/>
<path fill="#808080" d="M771.629,195.283l0.014,18.722l-11.305,0.012l-0.018-18.722L771.629,195.283z"/><path fill="#808080" d="M715.637,224.292l0.014,19.045l-10.313,0.01l-0.018-19.044L715.637,224.292z"/>
<path fill="#808080" d="M639.614,263.155l0.014,20.512l-11.289,0.011l-0.019-20.511L639.614,263.155z"/><path fill="#808080" d="M574.991,296.829l0.014,21.503l-12.968,0.013l-0.02-21.501L574.991,296.829z"/>
<path fill="#808080" d="M504.826,333.571l0.371,20.689l-13.017,0.237l-0.376-20.687L504.826,333.571z"/><path fill="#808080" d="M684.246,316.4l0.174,21.619l-13.002,0.103l-0.168-21.619L684.246,316.4z"/>
<path fill="#808080" d="M616.644,354.283l0.826,22.799l-13.033,0.471l-0.821-22.801L616.644,354.283z"/><path fill="#808080" d="M543.878,394.805l0.883,24.352l-13.952,0.506l-0.876-24.355L543.878,394.805z"/>
<path fill="#808080" d="M741.918,373.621l0.191,23.012l-12.674,0.099l-0.18-23.011L741.918,373.621z"/><path fill="#808080" d="M673.574,417.62l0.186,22.331l-13.668,0.109l-0.172-22.331L673.574,417.62z"/>
<path fill="#808080" d="M729.162,489.99l0.215,25.95l-15.598,0.125l-0.201-25.951L729.162,489.99z"/><path fill="#808080" d="M800.551,441.283l0.208,25.01l-14.328,0.115l-0.194-25.012L800.551,441.283z"/>
<path fill="#808080" d="M865.248,396.704l0.199,23.911l-13.363,0.106l-0.186-23.915L865.248,396.704z"/><path fill="#808080" d="M941.563,344.924l0.187,22.371l-13.983,0.113l-0.172-22.377L941.563,344.924z"/>
<path fill="#808080" d="M996.396,307.996l-1.609,22.285l-12.598-0.912l1.624-22.29L996.396,307.996z"/><path fill="#808080" d="M1046.09,274.278l-1.522,21.112l-12.57-0.911l1.54-21.115L1046.09,274.278z"/>
<path fill="#808080" d="M1093.063,241.948l-1.483,20.581l-12.117-0.878l1.498-20.583L1093.063,241.948z"/><path fill="#808080" d="M1136.584,212.699l-1.432,19.875l-11.943-0.864l1.445-19.88L1136.584,212.699z"/>
<path fill="#808080" d="M1177.217,185.049l-1.318,18.328l-11.975-0.867l1.332-18.332L1177.217,185.049z"/></svg>